<svg width="2759" height="1439" viewBox="0 0 2759 1439" fill="none"
    xmlns="http://www.w3.org/2000/svg">
    <line x1="20" y1="-20" x2="380" y2="-20" transform="matrix(-1 8.74228e-08 8.74228e-08 1 1458 210)" stroke="#fecc1b" stroke-width="40" stroke-linecap="round"/>
    <line x1="20" y1="-20" x2="180" y2="-20" transform="matrix(-1 8.74228e-08 8.74228e-08 1 1558 320)" stroke="#fecc1b" stroke-width="40" stroke-linecap="round"/>
    <line x1="20" y1="-20" x2="480" y2="-20" transform="matrix(-1 8.74228e-08 8.74228e-08 1 1558 430)" stroke="#fecc1b" stroke-width="40" stroke-linecap="round"/>
    <line x1="20" y1="-20" x2="180" y2="-20" transform="matrix(-1 8.74228e-08 8.74228e-08 1 1158 540)" stroke="#fecc1b" stroke-width="40" stroke-linecap="round"/>
    <line x1="20" y1="-20" x2="180" y2="-20" transform="matrix(-1 8.74228e-08 8.74228e-08 1 1558 540)" stroke="#fecc1b" stroke-width="40" stroke-linecap="round"/>
    <line x1="20" y1="-20" x2="480" y2="-20" transform="matrix(-1 8.74228e-08 8.74228e-08 1 1558 650)" stroke="#fecc1b" stroke-width="40" stroke-linecap="round"/>
</svg>
