<svg width="96" height="71" viewBox="0 0 96 71" fill="none"
    xmlns="http://www.w3.org/2000/svg">
    <rect x="22" y="32" width="4" height="4" fill="#00FFBC" stroke="#00FFBC"/>
    <rect x="68" y="32" width="4" height="4" fill="#00FFBC" stroke="#00FFBC"/>
    <path d="M24 33.75H59.665" stroke="#40c0f0" stroke-width="1.5"/>
    <path d="M69.665 33.75L59.665 37.5V30L69.665 33.75Z" fill="#40c0f0"/>
    <rect x="22" y="7" width="4" height="4" fill="#00FFBC" stroke="#00FFBC"/>
    <rect x="70" y="0" width="4" height="4" fill="#00FFBC" stroke="#00FFBC"/>
    <path d="M24 9.33982L61.578 3.7085" stroke="#F4F435" stroke-width="1.5"/>
    <path d="M71.468 2.2266L62.134 7.41721L61.023 0L71.468 2.2266Z" fill="#F4F435"/>
    <rect x="91" y="57" width="4" height="4" fill="#00FFBC" stroke="#00FFBC"/>
    <path d="M46 66.3398L83.578 60.7085" stroke="#F4F435" stroke-width="1.5"/>
    <path d="M93.468 59.2266L84.134 64.4172L83.023 57L93.468 59.2266Z" fill="#F4F435"/>
    <rect y="65" width="4" height="4" fill="#00FFBC" stroke="#00FFBC"/>
    <path d="M1 66.75H36.665" stroke="#40c0f0" stroke-width="1.5"/>
    <path d="M46.665 66.75L36.665 70.5V63L46.665 66.75Z" fill="#40c0f0"/>
</svg>
